<?xml version="1.0" encoding="UTF-8"?>
<!DOCTYPE svg PUBLIC "-//W3C//DTD SVG 1.1//EN" "http://www.w3.org/Graphics/SVG/1.1/DTD/svg11.dtd">
<svg xmlns="http://www.w3.org/2000/svg" version="1.1" width="101px" height="62px" style="shape-rendering:geometricPrecision; text-rendering:geometricPrecision; image-rendering:optimizeQuality; fill-rule:evenodd; clip-rule:evenodd" xmlns:xlink="http://www.w3.org/1999/xlink">
<g><path style="opacity:1" fill="#fbfbfb" d="M -0.5,-0.5 C 33.1667,-0.5 66.8333,-0.5 100.5,-0.5C 100.5,20.1667 100.5,40.8333 100.5,61.5C 66.8333,61.5 33.1667,61.5 -0.5,61.5C -0.5,40.8333 -0.5,20.1667 -0.5,-0.5 Z"/></g>
<g><path style="opacity:1" fill="#f2f5f4" d="M 67.5,7.5 C 67.5,8.5 67.5,9.5 67.5,10.5C 66.3915,11.29 65.0581,11.79 63.5,12C 64.376,13.586 65.376,15.086 66.5,16.5C 67.9584,17.782 69.2918,17.782 70.5,16.5C 71.4767,13.7131 71.81,10.7131 71.5,7.5C 72.5,7.5 73.5,7.5 74.5,7.5C 74.7871,18.2181 74.4538,28.8848 73.5,39.5C 69.3891,43.0201 65.0558,43.3534 60.5,40.5C 58.7119,37.7719 58.2119,34.7719 59,31.5C 60.0757,28.921 61.909,27.2543 64.5,26.5C 66.1667,26.5 67.8333,26.5 69.5,26.5C 70.4511,25.0813 70.7845,23.4147 70.5,21.5C 68.3792,21.6747 66.3792,21.3414 64.5,20.5C 63.9524,18.6064 62.9524,16.9397 61.5,15.5C 58.37,18.2932 56.0366,21.6266 54.5,25.5C 51.0658,29.5057 47.7325,33.6724 44.5,38C 38.1754,38.4995 31.8421,38.6662 25.5,38.5C 25.5,34.5 25.5,30.5 25.5,26.5C 31.5,26.5 37.5,26.5 43.5,26.5C 43.2053,28.7354 43.5386,30.7354 44.5,32.5C 47.2676,29.1584 49.9343,25.6584 52.5,22C 43.5062,21.5002 34.5062,21.3336 25.5,21.5C 25.5,20.1667 25.5,18.8333 25.5,17.5C 30.5,17.5 35.5,17.5 40.5,17.5C 40.3573,15.7376 40.6906,14.0709 41.5,12.5C 36.2079,11.5052 30.8746,11.1718 25.5,11.5C 25.5,10.1667 25.5,8.83333 25.5,7.5C 31.8333,7.5 38.1667,7.5 44.5,7.5C 44.5,10.8333 44.5,14.1667 44.5,17.5C 48.254,17.4964 51.9206,17.663 55.5,18C 56.8333,16 58.1667,14 59.5,12C 58.2068,11.51 56.8734,11.3433 55.5,11.5C 55.5,10.1667 55.5,8.83333 55.5,7.5C 59.5,7.5 63.5,7.5 67.5,7.5 Z"/></g>
<g><path style="opacity:1" fill="#bebebe" d="M 68.5,6.5 C 69.1667,6.5 69.8333,6.5 70.5,6.5C 70.5,7.16667 70.8333,7.5 71.5,7.5C 71.81,10.7131 71.4767,13.7131 70.5,16.5C 70.8134,13.7531 70.48,11.0865 69.5,8.5C 69.1928,9.88748 69.1928,11.5542 69.5,13.5C 64.9593,13.6691 64.626,13.0025 68.5,11.5C 68.3764,10.8933 68.0431,10.56 67.5,10.5C 67.5,9.5 67.5,8.5 67.5,7.5C 68.1667,7.5 68.5,7.16667 68.5,6.5 Z"/></g>
<g><path style="opacity:1" fill="#fbfbfb" d="M 89.5,35.5 C 88.3563,39.9637 87.6896,44.6304 87.5,49.5C 88.8333,49.5 90.1667,49.5 91.5,49.5C 91.5,50.8333 91.5,52.1667 91.5,53.5C 63.8333,53.5 36.1667,53.5 8.5,53.5C 8.5,52.1667 8.5,50.8333 8.5,49.5C 9.83333,49.5 11.1667,49.5 12.5,49.5C 11.6461,41.4816 10.6461,33.4816 9.5,25.5C 11.1667,25.5 12.8333,25.5 14.5,25.5C 15.1359,33.4211 16.1359,41.2544 17.5,49C 39.1667,49.6667 60.8333,49.6667 82.5,49C 84.1227,37.523 85.7894,26.023 87.5,14.5C 83.8927,13.5108 80.226,13.1774 76.5,13.5C 75.5655,12.4324 75.2322,11.099 75.5,9.5C 81.1667,9.5 86.8333,9.5 92.5,9.5C 91.336,18.1453 90.336,26.8119 89.5,35.5 Z"/></g>
<g><path style="opacity:1" fill="#777b79" d="M 70.5,6.5 C 78.0532,8.11629 85.7199,8.78296 93.5,8.5C 92.7813,18.1973 91.7813,27.8639 90.5,37.5C 89.6618,37.1583 89.3284,36.4916 89.5,35.5C 90.336,26.8119 91.336,18.1453 92.5,9.5C 86.8333,9.5 81.1667,9.5 75.5,9.5C 75.2322,11.099 75.5655,12.4324 76.5,13.5C 76.5,13.8333 76.5,14.1667 76.5,14.5C 75.5233,17.2869 75.19,20.2869 75.5,23.5C 75.6659,28.5111 75.4993,33.5111 75,38.5C 74.6174,39.056 74.1174,39.3893 73.5,39.5C 74.4538,28.8848 74.7871,18.2181 74.5,7.5C 73.5,7.5 72.5,7.5 71.5,7.5C 70.8333,7.5 70.5,7.16667 70.5,6.5 Z"/></g>
<g><path style="opacity:1" fill="#7f7f7f" d="M 68.5,6.5 C 68.5,7.16667 68.1667,7.5 67.5,7.5C 63.5,7.5 59.5,7.5 55.5,7.5C 55.5,8.83333 55.5,10.1667 55.5,11.5C 56.8734,11.3433 58.2068,11.51 59.5,12C 58.1667,14 56.8333,16 55.5,18C 51.9206,17.663 48.254,17.4964 44.5,17.5C 44.5,14.1667 44.5,10.8333 44.5,7.5C 38.1667,7.5 31.8333,7.5 25.5,7.5C 25.5,8.83333 25.5,10.1667 25.5,11.5C 30.8746,11.1718 36.2079,11.5052 41.5,12.5C 40.6906,14.0709 40.3573,15.7376 40.5,17.5C 35.5,17.5 30.5,17.5 25.5,17.5C 25.5,18.8333 25.5,20.1667 25.5,21.5C 25.1667,21.5 24.8333,21.5 24.5,21.5C 24.5,19.8333 24.5,18.1667 24.5,16.5C 29.6912,16.9415 34.6912,16.4415 39.5,15C 31.1733,14.5003 22.84,14.3336 14.5,14.5C 14.5,16.8333 14.5,19.1667 14.5,21.5C 14.1667,21.5 13.8333,21.5 13.5,21.5C 13.4249,18.7938 13.0916,16.1272 12.5,13.5C 21.5062,13.6664 30.5062,13.4998 39.5,13C 34.5111,12.5007 29.5111,12.3341 24.5,12.5C 24.5,11.5 24.5,10.5 24.5,9.5C 18.8333,9.5 13.1667,9.5 7.5,9.5C 7.83333,13.5 8.16667,17.5 8.5,21.5C 8.16667,21.5 7.83333,21.5 7.5,21.5C 6.80049,17.2022 6.46716,12.8689 6.5,8.5C 16.1954,8.34895 25.862,7.68228 35.5,6.5C 40.4061,6.71823 45.2394,7.3849 50,8.5C 56.0542,6.82619 62.2209,6.15953 68.5,6.5 Z"/></g>
<g><path style="opacity:1" fill="#f9fafa" d="M 13.5,21.5 C 11.8333,21.5 10.1667,21.5 8.5,21.5C 8.16667,17.5 7.83333,13.5 7.5,9.5C 13.1667,9.5 18.8333,9.5 24.5,9.5C 24.5,10.5 24.5,11.5 24.5,12.5C 29.5111,12.3341 34.5111,12.5007 39.5,13C 30.5062,13.4998 21.5062,13.6664 12.5,13.5C 13.0916,16.1272 13.4249,18.7938 13.5,21.5 Z"/></g>
<g><path style="opacity:1" fill="#fcfcfc" d="M 46.5,9.5 C 48.8333,9.5 51.1667,9.5 53.5,9.5C 53.5,10.5 53.5,11.5 53.5,12.5C 54.8734,12.3433 56.2068,12.51 57.5,13C 53.8484,13.4986 50.1817,13.6653 46.5,13.5C 46.5,12.1667 46.5,10.8333 46.5,9.5 Z"/></g>
<g><path style="opacity:1" fill="#8a8989" d="M 70.5,16.5 C 69.2918,17.782 67.9584,17.782 66.5,16.5C 65.376,15.086 64.376,13.586 63.5,12C 65.0581,11.79 66.3915,11.29 67.5,10.5C 68.0431,10.56 68.3764,10.8933 68.5,11.5C 64.626,13.0025 64.9593,13.6691 69.5,13.5C 69.1928,11.5542 69.1928,9.88748 69.5,8.5C 70.48,11.0865 70.8134,13.7531 70.5,16.5 Z"/></g>
<g><path style="opacity:1" fill="#f0f4f3" d="M 24.5,21.5 C 21.1667,21.5 17.8333,21.5 14.5,21.5C 14.5,19.1667 14.5,16.8333 14.5,14.5C 22.84,14.3336 31.1733,14.5003 39.5,15C 34.6912,16.4415 29.6912,16.9415 24.5,16.5C 24.5,18.1667 24.5,19.8333 24.5,21.5 Z"/></g>
<g><path style="opacity:1" fill="#dbdfde" d="M 45.5,14.5 C 48.8984,14.1796 52.2317,14.513 55.5,15.5C 53.8333,15.8333 52.1667,16.1667 50.5,16.5C 48.3603,16.4439 46.6936,15.7773 45.5,14.5 Z"/></g>
<g><path style="opacity:1" fill="#f4f7f6" d="M 76.5,14.5 C 79.5,14.5 82.5,14.5 85.5,14.5C 85.078,21.5426 84.2447,28.5426 83,35.5C 82.8091,33.2922 82.3091,31.2922 81.5,29.5C 80.4778,26.4777 78.4778,24.4777 75.5,23.5C 75.19,20.2869 75.5233,17.2869 76.5,14.5 Z"/></g>
<g><path style="opacity:1" fill="#284f3f" d="M 64.5,20.5 C 66.3792,21.3414 68.3792,21.6747 70.5,21.5C 70.7845,23.4147 70.4511,25.0813 69.5,26.5C 69.5,25.1667 69.5,23.8333 69.5,22.5C 67.2188,22.9227 65.5521,22.256 64.5,20.5 Z"/></g>
<g><path style="opacity:1" fill="#569d83" d="M 64.5,20.5 C 65.5521,22.256 67.2188,22.9227 69.5,22.5C 69.5,23.8333 69.5,25.1667 69.5,26.5C 67.8333,26.5 66.1667,26.5 64.5,26.5C 65.6085,25.71 66.9419,25.21 68.5,25C 59.5317,24.9876 56.0317,29.4876 58,38.5C 58.7083,39.3805 59.5416,40.0472 60.5,40.5C 65.0558,43.3534 69.3891,43.0201 73.5,39.5C 74.1174,39.3893 74.6174,39.056 75,38.5C 75.4993,33.5111 75.6659,28.5111 75.5,23.5C 78.4778,24.4777 80.4778,26.4777 81.5,29.5C 81.5,32.1667 81.5,34.8333 81.5,37.5C 80.4516,41.7192 77.7849,44.5525 73.5,46C 57.5,46.6667 41.5,46.6667 25.5,46C 17.43,40.8107 15.7633,34.1441 20.5,26C 18.8659,25.5065 17.1992,25.3398 15.5,25.5C 15.1667,25.5 14.8333,25.5 14.5,25.5C 12.8333,25.5 11.1667,25.5 9.5,25.5C 9.16667,25.5 8.83333,25.5 8.5,25.5C 7.56552,24.4324 7.23219,23.099 7.5,21.5C 7.83333,21.5 8.16667,21.5 8.5,21.5C 10.1667,21.5 11.8333,21.5 13.5,21.5C 13.8333,21.5 14.1667,21.5 14.5,21.5C 17.8333,21.5 21.1667,21.5 24.5,21.5C 31.6552,22.3288 38.9885,22.8288 46.5,23C 47.6091,24.813 46.9424,25.6463 44.5,25.5C 38.013,24.346 31.3464,24.1794 24.5,25C 23.3651,29.7477 23.1985,34.581 24,39.5C 30.7524,40.6445 37.5857,40.8112 44.5,40C 48.6732,38.6656 50.6732,35.8322 50.5,31.5C 51.5,31.5 52.5,31.5 53.5,31.5C 53.5172,29.4352 53.8505,27.4352 54.5,25.5C 56.0366,21.6266 58.37,18.2932 61.5,15.5C 62.9524,16.9397 63.9524,18.6064 64.5,20.5 Z"/></g>
<g><path style="opacity:1" fill="#517d6c" d="M 44.5,25.5 C 37.9779,25.1765 31.6446,25.5098 25.5,26.5C 25.5,30.5 25.5,34.5 25.5,38.5C 31.8421,38.6662 38.1754,38.4995 44.5,38C 47.7325,33.6724 51.0658,29.5057 54.5,25.5C 53.8505,27.4352 53.5172,29.4352 53.5,31.5C 52.5,31.5 51.5,31.5 50.5,31.5C 50.6732,35.8322 48.6732,38.6656 44.5,40C 37.5857,40.8112 30.7524,40.6445 24,39.5C 23.1985,34.581 23.3651,29.7477 24.5,25C 31.3464,24.1794 38.013,24.346 44.5,25.5 Z"/></g>
<g><path style="opacity:1" fill="#3f6453" d="M 64.5,26.5 C 61.909,27.2543 60.0757,28.921 59,31.5C 58.2119,34.7719 58.7119,37.7719 60.5,40.5C 59.5416,40.0472 58.7083,39.3805 58,38.5C 56.0317,29.4876 59.5317,24.9876 68.5,25C 66.9419,25.21 65.6085,25.71 64.5,26.5 Z"/></g>
<g><path style="opacity:1" fill="#447162" d="M 24.5,21.5 C 24.8333,21.5 25.1667,21.5 25.5,21.5C 34.5062,21.3336 43.5062,21.5002 52.5,22C 49.9343,25.6584 47.2676,29.1584 44.5,32.5C 44.5,30.1667 44.5,27.8333 44.5,25.5C 46.9424,25.6463 47.6091,24.813 46.5,23C 38.9885,22.8288 31.6552,22.3288 24.5,21.5 Z"/></g>
<g><path style="opacity:1" fill="#8e918f" d="M 76.5,14.5 C 76.5,14.1667 76.5,13.8333 76.5,13.5C 80.226,13.1774 83.8927,13.5108 87.5,14.5C 85.7894,26.023 84.1227,37.523 82.5,49C 60.8333,49.6667 39.1667,49.6667 17.5,49C 16.1359,41.2544 15.1359,33.4211 14.5,25.5C 14.8333,25.5 15.1667,25.5 15.5,25.5C 16.4332,33.1607 17.4332,40.8274 18.5,48.5C 39.5,48.5 60.5,48.5 81.5,48.5C 82.3352,44.6603 82.3352,40.9937 81.5,37.5C 81.5,34.8333 81.5,32.1667 81.5,29.5C 82.3091,31.2922 82.8091,33.2922 83,35.5C 84.2447,28.5426 85.078,21.5426 85.5,14.5C 82.5,14.5 79.5,14.5 76.5,14.5 Z"/></g>
<g><path style="opacity:1" fill="#e8f7f2" d="M 15.5,25.5 C 17.1992,25.3398 18.8659,25.5065 20.5,26C 15.7633,34.1441 17.43,40.8107 25.5,46C 41.5,46.6667 57.5,46.6667 73.5,46C 77.7849,44.5525 80.4516,41.7192 81.5,37.5C 82.3352,40.9937 82.3352,44.6603 81.5,48.5C 60.5,48.5 39.5,48.5 18.5,48.5C 17.4332,40.8274 16.4332,33.1607 15.5,25.5 Z"/></g>
<g><path style="opacity:1" fill="#476457" d="M 63.5,32.5 C 63.9704,31.3065 64.9704,30.6399 66.5,30.5C 70.226,30.7983 71.3927,32.7983 70,36.5C 66.5067,39.5018 64.0067,38.8351 62.5,34.5C 62.5427,33.5836 62.8761,32.9169 63.5,32.5 Z"/></g>
<g><path style="opacity:1" fill="#2b5144" d="M 29.5,30.5 C 30.404,31.209 30.7373,32.209 30.5,33.5C 33.7131,33.19 36.7131,33.5233 39.5,34.5C 36.1667,34.5 32.8333,34.5 29.5,34.5C 29.5,33.1667 29.5,31.8333 29.5,30.5 Z"/></g>
<g><path style="opacity:1" fill="#5d9f87" d="M 63.5,32.5 C 67.2843,30.5369 69.1177,31.5369 69,35.5C 65.5341,37.35 63.7007,36.35 63.5,32.5 Z"/></g>
<g><path style="opacity:1" fill="#608679" d="M 29.5,30.5 C 32.6399,29.3592 35.9733,29.1925 39.5,30C 40.8009,31.6155 40.8009,33.1155 39.5,34.5C 36.7131,33.5233 33.7131,33.19 30.5,33.5C 30.7373,32.209 30.404,31.209 29.5,30.5 Z"/></g>
<g><path style="opacity:1" fill="#aabab4" d="M 25.5,26.5 C 31.6446,25.5098 37.9779,25.1765 44.5,25.5C 44.5,27.8333 44.5,30.1667 44.5,32.5C 43.5386,30.7354 43.2053,28.7354 43.5,26.5C 37.5,26.5 31.5,26.5 25.5,26.5 Z"/></g>
<g><path style="opacity:1" fill="#969797" d="M 8.5,25.5 C 8.83333,25.5 9.16667,25.5 9.5,25.5C 10.6461,33.4816 11.6461,41.4816 12.5,49.5C 11.1667,49.5 9.83333,49.5 8.5,49.5C 8.5,50.8333 8.5,52.1667 8.5,53.5C 36.1667,53.5 63.8333,53.5 91.5,53.5C 91.5,52.1667 91.5,50.8333 91.5,49.5C 90.1667,49.5 88.8333,49.5 87.5,49.5C 87.6896,44.6304 88.3563,39.9637 89.5,35.5C 89.3284,36.4916 89.6618,37.1583 90.5,37.5C 89.7564,41.1185 89.423,44.7852 89.5,48.5C 90.8333,48.5 92.1667,48.5 93.5,48.5C 93.5,50.5 93.5,52.5 93.5,54.5C 64.5,54.5 35.5,54.5 6.5,54.5C 6.5,52.5 6.5,50.5 6.5,48.5C 7.83333,48.5 9.16667,48.5 10.5,48.5C 10.0213,40.8159 9.35459,33.1492 8.5,25.5 Z"/></g>
</svg>
